PathFileType	4	(X/Y/Z)	C:/Users/beibeiliu/ov580/test_trc/User3\sequence.10_training_dense_left.trc
DataRate	CameraRate	NumFrames	NumMarkers	Units	OrigDataRate	OrigDataStartFrame	OrigNumFrames
120	120	23	19	mm	120	24	117
Frame#	Time	ThumbCMC			ThumbMCP			ThumbIP			ThumbTip			IndexMCP			IndexPIP			IndexTip			MiddleMCP			MiddlePIP			MiddleTip			RingMCP			RingPIP			RingTip			PinkyMCP			PinkyPIP			PinkyTip			BackHand1			BackHand2			BackHand3	
		X0	Y0	Z0	X1	Y1	Z1	X2	Y2	Z2	X3	Y3	Z3	X4	Y4	Z4	X5	Y5	Z5	X6	Y6	Z6	X7	Y7	Z7	X8	Y8	Z8	X9	Y9	Z9	X10	Y10	Z10	X11	Y11	Z11	X12	Y12	Z12	X13	Y13	Z13	X14	Y14	Z14	X15	Y15	Z15	X16	Y16	Z16	X17	Y17	Z17	X18	Y18	Z18	
23	0.191667	-151.997	-41.7137	31.3617	-139.545	-56.0831	4.65552	-131.999	-68.6987	-18.8019	-141.749	-80.7988	-43.9389	-167.199	-31.5429	-41.0931	-164.404	-59.228	-60.3791	-159.839	-84.0427	-58.0638	-198.558	-20.1341	-45.4899	-192.986	-25.5953	-72.6303	-192.097	-41.6976	-103.052	-218.002	-27.7528	-31.8892	-217.855	-29.5507	-60.7152	-218.115	-37.8563	-85.6808	-229.93	-40.3164	-16.8816	-237.232	-43.4326	-40.1076	-242.376	-49.4056	-59.4769	-213.872	-25.2784	22.4512	-214.295	-26.9404	49.6202	-182.313	-17.2849	28.6415	
24	0.2	-148.054	-41.7186	32.3184	-134.785	-57.3506	3.89395	-133.464	-69.6408	-18.6534	-138.295	-82.263	-42.4657	-168.402	-32.1659	-40.4752	-163.365	-55.2199	-59.0938	-157.998	-86.4416	-57.0575	-196.798	-21.2336	-42.045	-197.439	-26.9709	-71.4323	-195.958	-42.099	-104.015	-218.062	-28.7169	-32.8046	-219.284	-29.4079	-58.6388	-222.539	-39.3409	-83.3375	-232.869	-41.9622	-17.81	-240.955	-44.9672	-35.9066	-241.963	-50.1484	-60.2372	-211.604	-22.2464	20.1785	-215.29	-26.6615	48.4472	-184.052	-17.7479	33.4685	
25	0.208333	-152.605	-43.0754	33.3192	-133.551	-57.1628	6.15327	-129.669	-69.5568	-23.7887	-136.82	-82.4385	-43.6274	-171.024	-32.9663	-43.6663	-162.401	-58.6297	-60.8354	-157.84	-87.4986	-56.6616	-196.322	-19.9903	-45.0766	-193.212	-25.4361	-74.2517	-192.933	-41.3282	-102.906	-217.718	-27.6058	-34.2888	-220.154	-29.7844	-62.5467	-221.927	-40.3602	-88.5746	-230.652	-41.1142	-18.9178	-239.026	-44.0878	-40.4792	-242.317	-51.3711	-62.3912	-215.514	-24.9013	22.4411	-210.965	-24.8435	47.2186	-182.969	-17.8042	31.1901	
26	0.216667	-148.722	-41.8973	30.6438	-134.394	-56.7772	3.63153	-133.942	-68.4127	-23.0585	-142.694	-80.9936	-41.7449	-166.751	-30.7111	-39.7794	-164.968	-54.869	-60.9886	-159.61	-83.0377	-59.0235	-198.84	-20.9233	-44.7566	-192.558	-25.3809	-71.4407	-190.529	-37.8853	-100.23	-212.765	-26.3662	-35.0806	-215.801	-28.788	-62.1171	-216.368	-37.3925	-89.091	-232.238	-42.1666	-16.2506	-235.347	-43.4481	-41.5252	-242.075	-48.088	-61.7457	-215.824	-25.122	17.8495	-214.354	-26.0853	51.3485	-181.027	-17.1296	29.8725	
27	0.225	-152.454	-41.8254	31.7466	-133.404	-56.9039	6.59946	-131.181	-68.4832	-25.6897	-138.726	-82.2334	-45.3044	-171.292	-30.6175	-39.0721	-160.752	-56.0408	-61.4089	-161.802	-84.0959	-59.5915	-194.915	-19.9104	-45.4258	-196.636	-25.6477	-73.1392	-189.39	-39.4876	-104.633	-216.412	-27.6807	-32.8477	-217.854	-30.041	-62.6214	-219.601	-37.0156	-85.1234	-233.939	-42.1536	-15.7549	-235.427	-43.5754	-36.7285	-240.665	-50.3557	-61.4893	-211.109	-24.7339	20.0427	-213.435	-27.7566	50.732	-182.919	-16.9269	27.9265	
28	0.233333	-148.205	-40.3698	29.9096	-136.896	-55.8256	7.93807	-132.598	-68.4448	-21.3684	-139.529	-80.9586	-40.6432	-169.474	-31.1096	-41.4781	-163.914	-54.1004	-60.1881	-161.055	-88.2665	-58.4507	-193.531	-19.5248	-41.061	-193.185	-24.9893	-74.1128	-192.46	-38.573	-98.9786	-213.864	-27.0041	-35.1519	-214.888	-27.6755	-62.1799	-216.613	-35.5801	-85.2257	-229.659	-40.4198	-15.9325	-237.755	-43.9478	-40.187	-241.922	-49.5854	-62.8527	-215.097	-22.6479	17.5905	-210.709	-25.0077	51.9643	-181.8	-14.6764	31.1291	
29	0.241667	-148.716	-41.9389	33.5357	-137.659	-55.7603	5.66323	-127.47	-68.8155	-20.9869	-136.774	-82.7195	-42.2944	-170.709	-30.4201	-39.4681	-161.566	-54.3184	-60.4071	-156.175	-86.6332	-58.1454	-197.791	-19.6594	-43.3344	-194.558	-25.7336	-72.424	-190.273	-40.4164	-103.539	-213.081	-27.3164	-33.632	-215.909	-28.9518	-60.2579	-220.316	-37.0894	-84.7741	-227.814	-40.9745	-16.3789	-236.989	-42.8251	-40.8385	-239.78	-49.2794	-63.1795	-209.26	-22.9429	21.6943	-208.954	-26.093	49.0622	-179.437	-15.031	31.5639	
30	0.25	-152.349	-42.051	30.0357	-134.34	-56.1953	3.78137	-132.909	-69.6948	-19.1374	-140.834	-82.4601	-42.4896	-166.489	-31.9973	-43.1045	-164.643	-53.5054	-60.1567	-160.678	-88.3491	-59.1792	-198.001	-21.2384	-40.3362	-196.748	-26.6421	-72.2266	-193.86	-40.8427	-99.2896	-214.693	-26.6745	-34.4602	-219.364	-30.3538	-61.0267	-215.865	-37.9454	-86.4631	-230.815	-41.7117	-17.595	-237.947	-44.5533	-37.6078	-242.292	-49.7798	-65.0655	-215.338	-22.5976	19.3756	-211.615	-26.906	50.6194	-182.039	-15.703	30.6764	
31	0.258333	-150.758	-42.3505	32.8295	-132.785	-57.8351	5.51948	-132.12	-69.2243	-18.6756	-135.879	-83.1585	-42.5116	-169.948	-32.547	-42.5581	-161.255	-54.1583	-59.8622	-157.445	-85.863	-58.8738	-195.824	-20.5904	-44.3526	-194.236	-27.4309	-72.5919	-190.277	-40.3994	-102.173	-216.549	-29.4358	-31.4701	-217.153	-29.9789	-56.4967	-217.69	-38.3366	-85.3855	-232.294	-43.8111	-13.8739	-240.312	-45.3177	-38.9685	-242.755	-49.6087	-58.896	-213.652	-23.0295	20.9576	-209.074	-27.6659	51.5969	-177.468	-16.6116	29.5994	
32	0.266667	-150.487	-42.9302	31.7143	-134.608	-57.2873	7.28323	-128.864	-70.8421	-19.7775	-139.158	-82.6142	-40.7947	-167.554	-30.3388	-37.9985	-162.961	-55.8173	-59.801	-160.262	-86.2282	-58.1522	-197.648	-22.2597	-40.6909	-196.2	-26.5148	-70.743	-190.785	-41.2176	-100.097	-213.713	-28.1719	-31.4309	-218.588	-29.9081	-56.2336	-218.869	-38.763	-83.2223	-233.599	-44.4913	-15.462	-236.445	-44.6822	-39.0283	-241.865	-51.1013	-62.9181	-214.637	-23.8492	19.9168	-209.248	-28.2511	51.3274	-183.229	-19.594	31.3537	
33	0.275	-148.219	-41.7107	32.8685	-134.041	-56.9557	5.61627	-130.957	-70.7392	-23.9802	-139.249	-82.4512	-39.9339	-172.319	-32.5668	-39.0733	-166.018	-56.4993	-60.1583	-161.037	-87.1073	-56.7583	-196.33	-21.9138	-43.7724	-196.378	-26.9829	-70.7347	-192.039	-40.249	-98.4866	-214.103	-28.4666	-34.124	-218.52	-30.7695	-57.2415	-219.631	-40.0557	-86.048	-235.066	-43.1489	-19.0294	-237.194	-45.8725	-40.1358	-245.797	-50.9262	-60.7567	-211.947	-22.8982	19.0058	-211.177	-26.1081	46.8867	-183.566	-16.6436	29.71	
34	0.283333	-150.768	-41.8278	32.6512	-133.484	-57.8726	7.01973	-131.732	-70.1237	-19.7579	-141.812	-81.9741	-41.0096	-170.209	-31.8892	-38.7259	-165.414	-60.3602	-60.2013	-162.526	-85.3395	-58.3051	-196.383	-20.833	-45.3237	-197.096	-27.9843	-73.8125	-192.517	-42.8676	-103.305	-217.043	-28.0702	-32.6791	-216.751	-28.8197	-60.9149	-219.768	-39.8654	-87.5824	-233.605	-44.6362	-14.4748	-238.77	-45.2097	-41.5976	-242.292	-50.6978	-63.6486	-212.162	-22.941	18.7703	-211.823	-26.8084	50.4868	-184.711	-17.2078	29.1607	
35	0.291667	-149.396	-42.8361	33.6524	-135.928	-56.7328	3.46043	-134.021	-69.0174	-20.3988	-143.093	-82.2299	-41.2618	-169.027	-31.5655	-41.0779	-160.781	-59.7517	-60.813	-160.245	-85.0073	-58.1939	-200.264	-21.8203	-46.1018	-195.139	-27.9175	-74.2167	-191.062	-40.6523	-102.864	-217.881	-28.3064	-33.7118	-218.581	-29.2507	-62.4997	-218.71	-39.0434	-85.9321	-234.855	-41.8817	-20.108	-239.212	-45.0253	-43.2445	-244.722	-52.3113	-61.6971	-215.58	-22.5422	16.5867	-214.32	-25.7592	48.1695	-183.772	-18.9686	30.2167	
36	0.3	-149.516	-42.5677	32.8998	-137.476	-56.7921	3.92608	-133.797	-69.4344	-20.2073	-137.876	-83.7355	-44.4841	-173.253	-33.6097	-41.2696	-166.312	-55.6147	-60.5528	-163.533	-86.0684	-58.7607	-198.476	-22.1135	-43.571	-194.328	-26.8401	-71.2874	-195.316	-41.1914	-100.459	-217.447	-29.477	-31.8605	-218.661	-29.9663	-58.0786	-217.883	-40.3359	-89.6689	-232.532	-42.897	-20.8256	-237.112	-45.4595	-42.1572	-244.979	-53.3984	-64.9335	-217.308	-25.8284	19.8291	-214.161	-26.1763	46.9274	-184.564	-19.3408	29.6324	
37	0.308333	-151.62	-43.1501	30.7688	-137.39	-56.946	2.61547	-132.741	-70.1211	-19.5813	-136.448	-83.7989	-43.479	-172.636	-35.6192	-44.5041	-164.753	-58.9701	-61.4907	-159.059	-87.7046	-57.5539	-200.185	-23.7349	-41.8606	-197.018	-28.6164	-72.0294	-195.707	-42.5375	-100.102	-218.814	-30.4135	-32.1926	-217.049	-30.5835	-62.5089	-221.833	-41.7469	-90.1453	-234.254	-44.8194	-14.9095	-240.477	-47.1835	-39.6446	-241.879	-50.2702	-61.1924	-212.447	-25.5992	21.3444	-216.938	-28.103	48.7523	-181.242	-17.6648	27.83	
38	0.316667	-153.165	-43.4819	31.6952	-134.088	-59.0898	5.53578	-130.027	-71.5756	-21.3885	-138.999	-84.5517	-39.4197	-170.896	-33.0692	-40.1225	-160.441	-58.8483	-60.6549	-161.195	-88.2849	-58.1531	-194.683	-22.3921	-42.1183	-195.829	-29.0985	-72.7647	-194.656	-44.2939	-103.409	-214.465	-29.3423	-34.0559	-217.581	-30.6762	-60.5877	-219.602	-40.3334	-86.5392	-232.067	-44.3961	-18.5381	-240.68	-47.35	-39.5945	-245.159	-53.4964	-65.9567	-215.069	-27.8036	20.7915	-211.199	-27.3822	47.7489	-180.49	-17.181	29.3721	
39	0.325	-153.654	-44.5651	31.9322	-138.662	-59.4643	7.86384	-132.071	-73.1078	-23.1452	-141.081	-86.5155	-45.7134	-170.555	-36.4823	-44.1605	-162.664	-56.8148	-60.586	-159.568	-90.1423	-57.3855	-199.308	-23.9016	-45.5443	-196.268	-30.8493	-74.4189	-195.222	-43.7108	-99.5462	-213.71	-29.9887	-33.1798	-218.475	-32.5105	-61.3498	-221.999	-42.4544	-88.9088	-233.464	-44.56	-20.1811	-239.516	-47.9624	-41.6896	-242.654	-56.0735	-65.7121	-212.362	-25.2017	20.2885	-213.545	-29.5378	48.0524	-179.223	-19.3371	31.3403	
40	0.333333	-147.733	-45.4792	30.6513	-137.029	-59.9263	4.5546	-131.004	-72.6194	-22.878	-138.624	-86.5228	-44.6365	-171.929	-36.3834	-44.379	-162.683	-59.8307	-60.2142	-162.535	-88.8344	-58.3335	-198.431	-24.6164	-44.3916	-196.153	-30.1458	-72.1753	-189.821	-44.4062	-101.583	-217.085	-31.1855	-33.1114	-218.705	-31.748	-59.7903	-218.713	-42.9639	-88.9641	-230.975	-44.7556	-16.782	-240.477	-48.9516	-39.5338	-241.832	-53.2399	-63.6712	-216.562	-27.0982	17.7976	-212.553	-29.5971	48.877	-182.413	-19.4467	31.0981	
41	0.341667	-147.343	-44.6071	31.9676	-137.21	-60.728	8.72658	-129.883	-74.0812	-24.2261	-141.414	-85.33	-43.637	-169.553	-34.8232	-40.6436	-162.892	-56.6031	-60.2116	-162.625	-86.9564	-58.7376	-198.276	-24.3191	-44.6916	-195.02	-29.7542	-72.5598	-194.905	-45.4312	-100.969	-217.701	-31.3974	-31.675	-216.177	-32.1509	-59.0292	-216.624	-42.325	-86.2449	-234.756	-45.7307	-17.3117	-239.346	-48.9092	-40.4089	-244.389	-56.2123	-65.3866	-213.456	-27.3054	19.7636	-209.111	-29.7435	48.8104	-179.093	-20.2929	32.6937	
42	0.35	-149.833	-46.2118	29.9782	-132.977	-60.4483	6.77657	-134.483	-73.3464	-23.1399	-141.757	-85.4913	-40.4576	-167.256	-33.5833	-40.2592	-161.982	-60.3065	-60.584	-159.037	-91.3618	-57.4212	-196.901	-24.8142	-45.4786	-196.345	-30.6772	-72.8843	-189.719	-46.3602	-103.594	-216.527	-32.45	-31.4305	-220.674	-34.3473	-60.3851	-217.904	-42.6732	-86.1159	-233.746	-46.3494	-16.8094	-238.137	-48.2547	-40.3587	-241.398	-54.1465	-63.1894	-212.203	-27.7188	22.5826	-210.306	-31.2035	50.6093	-180.131	-21.3252	33.0447	
43	0.358333	-148.39	-45.818	31.9354	-137.161	-60.0766	6.25907	-131.846	-72.971	-19.1677	-141.653	-86.8519	-43.5869	-172.121	-35.7012	-41.8023	-160.701	-56.4058	-60.6202	-159.268	-86.6139	-60.3645	-198.323	-25.3734	-41.1798	-192.977	-29.8859	-74.2159	-191.713	-45.5693	-100.123	-215.053	-31.2361	-34.3513	-218.544	-32.3559	-57.4422	-221.095	-43.1142	-85.9572	-230.439	-44.2374	-18.6729	-238.069	-47.6036	-39.1456	-241.575	-52.566	-60.2091	-211.314	-26.8245	19.5748	-213.642	-31.4174	51.0662	-178.483	-21.1132	33.6229	
44	0.366667	-152.39	-46.2485	34.1461	-133.933	-61.0191	6.41507	-130.046	-73.0826	-24.8078	-142.813	-84.4669	-41.7205	-169.057	-34.5795	-39.5818	-162.672	-55.9899	-60.5561	-160.22	-88.9646	-59.2543	-194.819	-24.2125	-39.986	-195.353	-29.3677	-69.5685	-190.715	-44.6145	-100.785	-216.239	-31.0824	-34.889	-218.619	-31.8781	-57.1052	-221.016	-43.0475	-85.9393	-230.034	-45.6111	-14.5403	-238.651	-48.3674	-41.3544	-239.219	-53.0472	-64.869	-211.572	-27.9514	21.5794	-208.603	-29.8898	49.4773	-178.083	-18.9531	30.1847	
45	0.375	-150.187	-46.0818	31.3616	-135.572	-60.8523	3.59296	-133.288	-73.3392	-20.2369	-139.032	-85.0156	-39.7686	-168.405	-34.378	-41.0118	-160.768	-58.7475	-60.5679	-158.433	-88.2855	-58.6519	-194.978	-23.6252	-43.9514	-196.879	-31.1718	-74.2151	-192.083	-43.7701	-100.445	-211.921	-29.3348	-32.6963	-216.777	-31.5836	-57.163	-219.503	-43.0294	-88.1155	-231.871	-44.0523	-19.0654	-239.538	-48.4681	-39.3284	-241.561	-52.1597	-60.8263	-214.835	-28.0301	22.1729	-208.841	-27.996	51.57	-178.884	-20.1493	32.0768	
